<svg width="154" height="24" viewBox="0 0 154 24" fill="none" xmlns="http://www.w3.org/2000/svg">
<path d="M22.8429 6.84462C22.8429 3.0773 19.9346 0.0197148 16.3398 0H0V10.3126H16.3398C17.9718 10.3216 19.4609 10.9579 20.6013 12.0009C21.9741 10.7464 22.8429 8.90213 22.8429 6.84462Z" fill="black"/>
<path d="M20.6013 12.0008C19.4609 13.0439 17.9718 13.6802 16.3398 13.6873H0V24H16.3398C19.9346 23.9803 22.8429 20.9227 22.8429 17.1553C22.8429 15.0978 21.9741 13.2536 20.6013 11.999V12.0008Z" fill="#005CF5"/>
<path fill-rule="evenodd" clip-rule="evenodd" d="M48.3258 18.1007V8.32076L44.1214 18.1007H41.3963L37.2062 8.30365V18.1007H34.4014V5.8993H39.0523L42.7645 14.875L46.4768 5.8993H51.1135V18.1007H48.3258ZM53.5001 18.1007V5.8993H56.3049V18.1007H53.5001ZM69.558 9.9094C69.558 9.61848 69.5097 9.38461 69.4158 9.20207C69.3191 9.02239 69.2024 8.88263 69.0659 8.78281C68.9265 8.68298 68.7871 8.61738 68.6449 8.58316C68.5027 8.54893 68.386 8.53182 68.3035 8.53182H58.6973V5.8993H68.7188C69.0175 5.8993 69.3731 5.95634 69.7941 6.07328C70.2123 6.19022 70.6134 6.39557 70.9974 6.69219C71.3786 6.98881 71.7029 7.39667 71.9702 7.9129C72.2348 8.42914 72.3685 9.09654 72.3685 9.9094C72.3685 10.4427 72.3059 10.9134 72.1779 11.3212C72.0499 11.7291 71.8821 12.0799 71.6772 12.3765C71.4696 12.6731 71.2363 12.9184 70.9775 13.1181C70.7158 13.3149 70.4541 13.4717 70.1895 13.5887L72.1324 18.1036H69.137L67.3534 13.9366H61.5077V18.1036H58.7029V11.3069H68.3092C68.3718 11.3069 68.4742 11.287 68.6108 11.2471C68.7501 11.2071 68.8895 11.133 69.0318 11.0303C69.174 10.9248 69.2992 10.7822 69.4072 10.6025C69.5125 10.4228 69.5665 10.1918 69.5665 9.91511L69.558 9.9094ZM85.8719 12C85.8719 11.4781 85.778 10.979 85.5931 10.5084C85.4082 10.0377 85.1266 9.62133 84.7483 9.26196C84.3699 8.90259 83.8977 8.61738 83.3317 8.40918C82.7627 8.20097 82.1028 8.09544 81.349 8.09544C80.5951 8.09544 79.9352 8.20097 79.3663 8.40918C78.7973 8.61738 78.3251 8.90259 77.9496 9.26196C77.5741 9.62133 77.2925 10.0377 77.1048 10.5084C76.9199 10.979 76.826 11.4752 76.826 12C76.826 12.5248 76.9199 13.0211 77.1048 13.4917C77.2897 13.9623 77.5713 14.3787 77.9496 14.7381C78.328 15.0974 78.8002 15.3826 79.3663 15.5909C79.9352 15.7991 80.5951 15.9046 81.349 15.9046C82.1028 15.9046 82.7627 15.7991 83.3317 15.5909C83.9006 15.3826 84.3728 15.0974 84.7483 14.7381C85.1266 14.3787 85.4054 13.9623 85.5931 13.4917C85.778 13.0211 85.8719 12.5248 85.8719 12ZM88.8189 12C88.8189 12.8842 88.6482 13.717 88.3097 14.5013C87.9712 15.2857 87.4791 15.973 86.8362 16.5663C86.1933 17.1595 85.4111 17.6301 84.4866 17.9781C83.5621 18.3261 82.5152 18.5 81.349 18.5C80.1827 18.5 79.1358 18.3261 78.2113 17.9781C77.2868 17.6301 76.5046 17.1595 75.8617 16.5663C75.2188 15.973 74.7267 15.2857 74.3882 14.5013C74.0497 13.717 73.879 12.8842 73.879 12C73.879 11.1159 74.0497 10.283 74.3882 9.49869C74.7295 8.71435 75.2188 8.02699 75.8617 7.43375C76.5046 6.8405 77.2868 6.3699 78.2113 6.02194C79.1358 5.67398 80.1827 5.5 81.349 5.5C82.5152 5.5 83.5621 5.67398 84.4866 6.02194C85.4111 6.3699 86.1933 6.8405 86.8362 7.43375C87.4791 8.02699 87.9712 8.71435 88.3097 9.49869C88.6482 10.283 88.8189 11.1159 88.8189 12Z" fill="black"/>
<path fill-rule="evenodd" clip-rule="evenodd" d="M102.235 14.353C102.235 14.0735 102.186 13.8539 102.092 13.6913C101.996 13.5288 101.882 13.4061 101.751 13.3263C101.617 13.2464 101.484 13.1922 101.344 13.1694C101.205 13.1466 101.094 13.1352 101.009 13.1352H93.6495V15.5595H101.009C101.071 15.5595 101.171 15.5481 101.304 15.5253C101.438 15.5024 101.572 15.4511 101.711 15.3684C101.851 15.2857 101.97 15.1659 102.078 15.0033C102.183 14.8407 102.237 14.6268 102.237 14.3587L102.235 14.353ZM102.235 9.647C102.235 9.36749 102.186 9.14788 102.092 8.98531C101.996 8.82273 101.882 8.70294 101.751 8.62879C101.617 8.55463 101.484 8.5033 101.344 8.48048C101.205 8.45766 101.094 8.44625 101.009 8.44625H93.6495V10.8706H101.009C101.071 10.8706 101.171 10.8592 101.304 10.8363C101.438 10.8135 101.572 10.7565 101.711 10.6709C101.851 10.5825 101.97 10.4599 102.078 10.2973C102.183 10.1347 102.237 9.92081 102.237 9.65271L102.235 9.647ZM104.928 14.721C104.928 15.3256 104.832 15.839 104.641 16.264C104.451 16.6889 104.192 17.0369 103.867 17.3107C103.543 17.5845 103.162 17.7841 102.721 17.9125C102.28 18.0408 101.805 18.1036 101.296 18.1036H90.8447V5.90215H101.296C101.828 5.90215 102.314 5.96775 102.761 6.1018C103.207 6.23585 103.589 6.4412 103.907 6.72071C104.226 7.00022 104.476 7.35674 104.655 7.79312C104.835 8.22949 104.926 8.75429 104.926 9.37035C104.914 9.74112 104.852 10.0976 104.735 10.4342C104.638 10.7251 104.485 11.016 104.274 11.3069C104.061 11.5979 103.754 11.8346 103.35 12.0228C103.754 12.231 104.061 12.4906 104.274 12.7986C104.488 13.1066 104.641 13.4061 104.735 13.697C104.852 14.0336 104.914 14.3758 104.926 14.7267L104.928 14.721ZM118.355 12C118.355 11.4781 118.261 10.979 118.076 10.5084C117.891 10.0377 117.61 9.62133 117.231 9.26196C116.853 8.90259 116.381 8.61738 115.815 8.40918C115.246 8.20097 114.586 8.09544 113.832 8.09544C113.078 8.09544 112.418 8.20097 111.849 8.40918C111.28 8.61738 110.808 8.90259 110.433 9.26196C110.054 9.62133 109.776 10.0377 109.588 10.5084C109.403 10.979 109.309 11.4752 109.309 12C109.309 12.5248 109.403 13.0211 109.588 13.4917C109.773 13.9623 110.054 14.3787 110.433 14.7381C110.811 15.0974 111.283 15.3826 111.849 15.5909C112.418 15.7991 113.078 15.9046 113.832 15.9046C114.586 15.9046 115.246 15.7991 115.815 15.5909C116.384 15.3826 116.856 15.0974 117.231 14.7381C117.61 14.3787 117.889 13.9623 118.076 13.4917C118.261 13.0211 118.355 12.5248 118.355 12ZM121.302 12C121.302 12.8842 121.131 13.717 120.793 14.5013C120.454 15.2857 119.962 15.973 119.319 16.5663C118.676 17.1595 117.894 17.6301 116.97 17.9781C116.045 18.3261 114.998 18.5 113.832 18.5C112.666 18.5 111.619 18.3261 110.694 17.9781C109.77 17.6301 108.988 17.1595 108.345 16.5663C107.702 15.973 107.21 15.2857 106.871 14.5013C106.533 13.717 106.362 12.8842 106.362 12C106.362 11.1159 106.533 10.283 106.871 9.49869C107.213 8.71435 107.702 8.02699 108.345 7.43375C108.988 6.8405 109.77 6.3699 110.694 6.02194C111.619 5.67398 112.666 5.5 113.832 5.5C114.998 5.5 116.045 5.67398 116.97 6.02194C117.894 6.3699 118.676 6.8405 119.319 7.43375C119.962 8.02699 120.454 8.71435 120.793 9.49869C121.134 10.283 121.302 11.1159 121.302 12ZM134.939 12C134.939 11.5123 134.857 11.0503 134.692 10.6139C134.527 10.1775 134.274 9.80102 133.926 9.48158C133.582 9.16214 133.15 8.9083 132.629 8.72291C132.109 8.53752 131.494 8.4434 130.78 8.4434H125.936V15.5566H130.78C131.491 15.5566 132.109 15.4625 132.629 15.2771C133.15 15.0917 133.582 14.8379 133.926 14.5185C134.271 14.199 134.527 13.8225 134.692 13.3862C134.857 12.9498 134.939 12.4877 134.939 12ZM137.886 12C137.886 12.8357 137.73 13.6257 137.417 14.3701C137.104 15.1145 136.646 15.762 136.046 16.3153C135.446 16.8686 134.712 17.3021 133.838 17.6216C132.968 17.941 131.969 18.1007 130.843 18.1007H123.134V5.8993H130.843C131.969 5.8993 132.968 6.05901 133.838 6.37845C134.709 6.69789 135.446 7.13427 136.046 7.68473C136.646 8.23805 137.101 8.88548 137.417 9.62989C137.73 10.3743 137.886 11.1643 137.886 12ZM147.413 13.988V18.1007H144.625V14.1277L138.444 5.8993H141.789L145.993 11.4068L150.135 5.8993H153.591L147.41 13.988H147.413Z" fill="#005CF5"/>
</svg>
